<svg width="20" height="20" viewBox="0 0 20 20" fill="none" xmlns="http://www.w3.org/2000/svg">
<path d="M17.3123 17.2738L16.2485 5.56875C16.2185 5.24625 15.9485 5 15.6248 5H13.7498V3.75C13.7498 2.745 13.361 1.80125 12.6548 1.095C11.9485 0.38875 11.0048 0 9.99975 0C7.93225 0 6.24975 1.6825 6.24975 3.75V5H4.37475C4.051 5 3.781 5.24625 3.75225 5.56875L2.6885 17.2738C2.62475 17.9713 2.85975 18.6687 3.33225 19.1862C3.80475 19.7037 4.47725 20 5.1785 20H14.8223C15.5235 20 16.196 19.7037 16.6685 19.1862C17.141 18.6687 17.3748 17.9713 17.3123 17.2738ZM7.49975 3.75C7.49975 2.37125 8.621 1.25 9.99975 1.25C10.671 1.25 11.2998 1.50875 11.771 1.97875C12.2423 2.44875 12.4998 3.07875 12.4998 3.75V5H7.49975V3.75ZM15.7448 18.3438C15.5048 18.605 15.1773 18.75 14.821 18.75H5.1785C4.8235 18.75 4.49475 18.605 4.256 18.3425C4.016 18.08 3.90225 17.7413 3.93475 17.3863L4.946 6.25H6.24975V8.125C6.24975 8.47 6.52975 8.75 6.87475 8.75C7.21975 8.75 7.49975 8.47 7.49975 8.125V6.25H12.4998V8.125C12.4998 8.47 12.7798 8.75 13.1248 8.75C13.4698 8.75 13.7498 8.47 13.7498 8.125V6.25H15.0535L16.066 17.3875C16.0985 17.7412 15.9848 18.0813 15.7448 18.3438Z" fill="#5F6979"/>
</svg>
