<svg width="350" height="30" viewBox="0 0 350 30" fill="none" xmlns="http://www.w3.org/2000/svg">
<path d="M345 0.5H5C2.51472 0.5 0.5 2.51472 0.5 5V25C0.5 27.4853 2.51472 29.5 5 29.5H345C347.485 29.5 349.5 27.4853 349.5 25V5C349.5 2.51472 347.485 0.5 345 0.5Z" fill="white" stroke="#F2F2F7"/>
<path d="M12.9902 19V10.4688H15.7793C16.7051 10.4688 17.4004 10.6602 17.8652 11.043C18.334 11.4258 18.5684 11.9922 18.5684 12.7422C18.5684 13.1406 18.4551 13.4941 18.2285 13.8027C18.002 14.1074 17.6934 14.3438 17.3027 14.5117C17.7637 14.6406 18.127 14.8867 18.3926 15.25C18.6621 15.6094 18.7969 16.0391 18.7969 16.5391C18.7969 17.3047 18.5488 17.9062 18.0527 18.3438C17.5566 18.7812 16.8555 19 15.9492 19H12.9902ZM14.1152 15.0098V18.0801H15.9727C16.4961 18.0801 16.9082 17.9453 17.209 17.6758C17.5137 17.4023 17.666 17.0273 17.666 16.5508C17.666 15.5234 17.1074 15.0098 15.9902 15.0098H14.1152ZM14.1152 14.1074H15.8145C16.3066 14.1074 16.6992 13.9844 16.9922 13.7383C17.2891 13.4922 17.4375 13.1582 17.4375 12.7363C17.4375 12.2676 17.3008 11.9277 17.0273 11.7168C16.7539 11.502 16.3379 11.3945 15.7793 11.3945H14.1152V14.1074ZM21.4805 14.8457H23.127C23.8457 14.8535 24.4141 15.041 24.832 15.4082C25.25 15.7754 25.459 16.2734 25.459 16.9023C25.459 17.5352 25.2441 18.043 24.8145 18.4258C24.3848 18.8086 23.8066 19 23.0801 19H20.3965V12.6602H21.4805V14.8457ZM27.7207 19H26.6309V12.6602H27.7207V19ZM21.4805 15.7305V18.1152H23.0918C23.498 18.1152 23.8125 18.0117 24.0352 17.8047C24.2578 17.5938 24.3691 17.3066 24.3691 16.9434C24.3691 16.5918 24.2598 16.3047 24.041 16.082C23.8262 15.8555 23.5234 15.7383 23.1328 15.7305H21.4805ZM32.3965 13.0234C33.1934 13.0234 33.8301 13.291 34.3066 13.8262C34.7871 14.3574 35.0273 15.0586 35.0273 15.9297V16.0293C35.0273 16.627 34.9121 17.1621 34.6816 17.6348C34.4512 18.1035 34.1191 18.4688 33.6855 18.7305C33.2559 18.9883 32.7598 19.1172 32.1973 19.1172C31.3457 19.1172 30.6602 18.834 30.1406 18.2676C29.6211 17.6973 29.3613 16.9336 29.3613 15.9766V15.4492C29.3613 14.1172 29.6074 13.0586 30.0996 12.2734C30.5957 11.4883 31.3262 11.0098 32.291 10.8379C32.8379 10.7402 33.207 10.6211 33.3984 10.4805C33.5898 10.3398 33.6855 10.1465 33.6855 9.90039H34.5762C34.5762 10.3887 34.4648 10.7695 34.2422 11.043C34.0234 11.3164 33.6719 11.5098 33.1875 11.623L32.3789 11.8047C31.7344 11.957 31.25 12.2148 30.9258 12.5781C30.6055 12.9375 30.3965 13.418 30.2988 14.0195C30.873 13.3555 31.5723 13.0234 32.3965 13.0234ZM32.1855 13.9141C31.6543 13.9141 31.2324 14.0938 30.9199 14.4531C30.6074 14.8086 30.4512 15.3027 30.4512 15.9355V16.0293C30.4512 16.709 30.6074 17.248 30.9199 17.6465C31.2363 18.041 31.6621 18.2383 32.1973 18.2383C32.7363 18.2383 33.1621 18.0391 33.4746 17.6406C33.7871 17.2422 33.9434 16.6602 33.9434 15.8945C33.9434 15.2969 33.7852 14.8184 33.4688 14.459C33.1562 14.0957 32.7285 13.9141 32.1855 13.9141ZM41.4961 15.9004C41.4961 16.8652 41.2754 17.6426 40.834 18.2324C40.3926 18.8223 39.7949 19.1172 39.041 19.1172C38.2715 19.1172 37.666 18.873 37.2246 18.3848V21.4375H36.1406V12.6602H37.1309L37.1836 13.3633C37.625 12.8164 38.2383 12.543 39.0234 12.543C39.7852 12.543 40.3867 12.8301 40.8281 13.4043C41.2734 13.9785 41.4961 14.7773 41.4961 15.8008V15.9004ZM40.4121 15.7773C40.4121 15.0625 40.2598 14.498 39.9551 14.084C39.6504 13.6699 39.2324 13.4629 38.7012 13.4629C38.0449 13.4629 37.5527 13.7539 37.2246 14.3359V17.3652C37.5488 17.9434 38.0449 18.2324 38.7129 18.2324C39.2324 18.2324 39.6445 18.0273 39.9492 17.6172C40.2578 17.2031 40.4121 16.5898 40.4121 15.7773ZM46.793 19C46.7305 18.875 46.6797 18.6523 46.6406 18.332C46.1367 18.8555 45.5352 19.1172 44.8359 19.1172C44.2109 19.1172 43.6973 18.9414 43.2949 18.5898C42.8965 18.2344 42.6973 17.7852 42.6973 17.2422C42.6973 16.582 42.9473 16.0703 43.4473 15.707C43.9512 15.3398 44.6582 15.1562 45.5684 15.1562H46.623V14.6582C46.623 14.2793 46.5098 13.9785 46.2832 13.7559C46.0566 13.5293 45.7227 13.416 45.2812 13.416C44.8945 13.416 44.5703 13.5137 44.3086 13.709C44.0469 13.9043 43.916 14.1406 43.916 14.418H42.8262C42.8262 14.1016 42.9375 13.7969 43.1602 13.5039C43.3867 13.207 43.6914 12.9727 44.0742 12.8008C44.4609 12.6289 44.8848 12.543 45.3457 12.543C46.0762 12.543 46.6484 12.7266 47.0625 13.0938C47.4766 13.457 47.6914 13.959 47.707 14.5996V17.5176C47.707 18.0996 47.7812 18.5625 47.9297 18.9062V19H46.793ZM44.9941 18.1738C45.334 18.1738 45.6562 18.0859 45.9609 17.9102C46.2656 17.7344 46.4863 17.5059 46.623 17.2246V15.9238H45.7734C44.4453 15.9238 43.7812 16.3125 43.7812 17.0898C43.7812 17.4297 43.8945 17.6953 44.1211 17.8867C44.3477 18.0781 44.6387 18.1738 44.9941 18.1738ZM54.0234 13.5391H51.8965V19H50.8125V13.5391H48.7266V12.6602H54.0234V13.5391ZM56.2617 14.8457H57.9082C58.627 14.8535 59.1953 15.041 59.6133 15.4082C60.0312 15.7754 60.2402 16.2734 60.2402 16.9023C60.2402 17.5352 60.0254 18.043 59.5957 18.4258C59.166 18.8086 58.5879 19 57.8613 19H55.1777V12.6602H56.2617V14.8457ZM56.2617 15.7305V18.1152H57.873C58.2793 18.1152 58.5938 18.0117 58.8164 17.8047C59.0391 17.5938 59.1504 17.3066 59.1504 16.9434C59.1504 16.5918 59.041 16.3047 58.8223 16.082C58.6074 15.8555 58.3047 15.7383 57.9141 15.7305H56.2617ZM64.3359 15.9473C64.3359 14.8887 64.541 14.0566 64.9512 13.4512C65.3613 12.8457 65.9238 12.543 66.6387 12.543C66.9707 12.543 67.2617 12.5996 67.5117 12.7129V10H68.5957V12.748C68.8691 12.6113 69.1895 12.543 69.5566 12.543C70.2754 12.543 70.8398 12.8457 71.25 13.4512C71.6602 14.0566 71.8652 14.9297 71.8652 16.0703C71.8652 17.0039 71.6602 17.7461 71.25 18.2969C70.8438 18.8477 70.2832 19.123 69.5684 19.123C69.1895 19.123 68.8652 19.0605 68.5957 18.9355V21.4375H67.5117V18.9531C67.2539 19.0664 66.959 19.123 66.627 19.123C65.916 19.123 65.3555 18.8477 64.9453 18.2969C64.5391 17.7461 64.3359 16.9922 64.3359 16.0352V15.9473ZM70.7812 15.9473C70.7812 15.1504 70.6445 14.5332 70.3711 14.0957C70.0977 13.6543 69.7207 13.4336 69.2402 13.4336C68.9941 13.4336 68.7793 13.4727 68.5957 13.5508V18.1387C68.7715 18.2051 68.9902 18.2383 69.252 18.2383C69.7363 18.2383 70.1113 18.0508 70.377 17.6758C70.6465 17.3008 70.7812 16.7246 70.7812 15.9473ZM65.4199 16.0703C65.4199 16.7812 65.5469 17.3203 65.8008 17.6875C66.0547 18.0547 66.4199 18.2383 66.8965 18.2383C67.123 18.2383 67.3281 18.2031 67.5117 18.1328V13.5332C67.3477 13.4668 67.1465 13.4336 66.9082 13.4336C66.4316 13.4336 66.0645 13.6465 65.8066 14.0723C65.5488 14.498 65.4199 15.1641 65.4199 16.0703ZM72.9902 15.7715C72.9902 15.1504 73.1113 14.5918 73.3535 14.0957C73.5996 13.5996 73.9395 13.2168 74.373 12.9473C74.8105 12.6777 75.3086 12.543 75.8672 12.543C76.7305 12.543 77.4277 12.8418 77.959 13.4395C78.4941 14.0371 78.7617 14.832 78.7617 15.8242V15.9004C78.7617 16.5176 78.6426 17.0723 78.4043 17.5645C78.1699 18.0527 77.832 18.4336 77.3906 18.707C76.9531 18.9805 76.4492 19.1172 75.8789 19.1172C75.0195 19.1172 74.3223 18.8184 73.7871 18.2207C73.2559 17.623 72.9902 16.832 72.9902 15.8477V15.7715ZM74.0801 15.9004C74.0801 16.6035 74.2422 17.168 74.5664 17.5938C74.8945 18.0195 75.332 18.2324 75.8789 18.2324C76.4297 18.2324 76.8672 18.0176 77.1914 17.5879C77.5156 17.1543 77.6777 16.5488 77.6777 15.7715C77.6777 15.0762 77.5117 14.5137 77.1797 14.084C76.8516 13.6504 76.4141 13.4336 75.8672 13.4336C75.332 13.4336 74.9004 13.6465 74.5723 14.0723C74.2441 14.498 74.0801 15.1074 74.0801 15.9004ZM84.7031 13.5391H82.5762V19H81.4922V13.5391H79.4062V12.6602H84.7031V13.5391ZM85.2246 15.7715C85.2246 15.1504 85.3457 14.5918 85.5879 14.0957C85.834 13.5996 86.1738 13.2168 86.6074 12.9473C87.0449 12.6777 87.543 12.543 88.1016 12.543C88.9648 12.543 89.6621 12.8418 90.1934 13.4395C90.7285 14.0371 90.9961 14.832 90.9961 15.8242V15.9004C90.9961 16.5176 90.877 17.0723 90.6387 17.5645C90.4043 18.0527 90.0664 18.4336 89.625 18.707C89.1875 18.9805 88.6836 19.1172 88.1133 19.1172C87.2539 19.1172 86.5566 18.8184 86.0215 18.2207C85.4902 17.623 85.2246 16.832 85.2246 15.8477V15.7715ZM86.3145 15.9004C86.3145 16.6035 86.4766 17.168 86.8008 17.5938C87.1289 18.0195 87.5664 18.2324 88.1133 18.2324C88.6641 18.2324 89.1016 18.0176 89.4258 17.5879C89.75 17.1543 89.9121 16.5488 89.9121 15.7715C89.9121 15.0762 89.7461 14.5137 89.4141 14.084C89.0859 13.6504 88.6484 13.4336 88.1016 13.4336C87.5664 13.4336 87.1348 13.6465 86.8066 14.0723C86.4785 14.498 86.3145 15.1074 86.3145 15.9004ZM96.4512 13.5566H93.5273V19H92.4375V12.6602H96.4512V13.5566ZM102.75 15.9004C102.75 16.8652 102.529 17.6426 102.088 18.2324C101.646 18.8223 101.049 19.1172 100.295 19.1172C99.5254 19.1172 98.9199 18.873 98.4785 18.3848V21.4375H97.3945V12.6602H98.3848L98.4375 13.3633C98.8789 12.8164 99.4922 12.543 100.277 12.543C101.039 12.543 101.641 12.8301 102.082 13.4043C102.527 13.9785 102.75 14.7773 102.75 15.8008V15.9004ZM101.666 15.7773C101.666 15.0625 101.514 14.498 101.209 14.084C100.904 13.6699 100.486 13.4629 99.9551 13.4629C99.2988 13.4629 98.8066 13.7539 98.4785 14.3359V17.3652C98.8027 17.9434 99.2988 18.2324 99.9668 18.2324C100.486 18.2324 100.898 18.0273 101.203 17.6172C101.512 17.2031 101.666 16.5898 101.666 15.7773ZM108.047 19C107.984 18.875 107.934 18.6523 107.895 18.332C107.391 18.8555 106.789 19.1172 106.09 19.1172C105.465 19.1172 104.951 18.9414 104.549 18.5898C104.15 18.2344 103.951 17.7852 103.951 17.2422C103.951 16.582 104.201 16.0703 104.701 15.707C105.205 15.3398 105.912 15.1562 106.822 15.1562H107.877V14.6582C107.877 14.2793 107.764 13.9785 107.537 13.7559C107.311 13.5293 106.977 13.416 106.535 13.416C106.148 13.416 105.824 13.5137 105.562 13.709C105.301 13.9043 105.17 14.1406 105.17 14.418H104.08C104.08 14.1016 104.191 13.7969 104.414 13.5039C104.641 13.207 104.945 12.9727 105.328 12.8008C105.715 12.6289 106.139 12.543 106.6 12.543C107.33 12.543 107.902 12.7266 108.316 13.0938C108.73 13.457 108.945 13.959 108.961 14.5996V17.5176C108.961 18.0996 109.035 18.5625 109.184 18.9062V19H108.047ZM106.248 18.1738C106.588 18.1738 106.91 18.0859 107.215 17.9102C107.52 17.7344 107.74 17.5059 107.877 17.2246V15.9238H107.027C105.699 15.9238 105.035 16.3125 105.035 17.0898C105.035 17.4297 105.148 17.6953 105.375 17.8867C105.602 18.0781 105.893 18.1738 106.248 18.1738ZM110.426 15.9473C110.426 14.8887 110.631 14.0566 111.041 13.4512C111.451 12.8457 112.014 12.543 112.729 12.543C113.061 12.543 113.352 12.5996 113.602 12.7129V10H114.686V12.748C114.959 12.6113 115.279 12.543 115.646 12.543C116.365 12.543 116.93 12.8457 117.34 13.4512C117.75 14.0566 117.955 14.9297 117.955 16.0703C117.955 17.0039 117.75 17.7461 117.34 18.2969C116.934 18.8477 116.373 19.123 115.658 19.123C115.279 19.123 114.955 19.0605 114.686 18.9355V21.4375H113.602V18.9531C113.344 19.0664 113.049 19.123 112.717 19.123C112.006 19.123 111.445 18.8477 111.035 18.2969C110.629 17.7461 110.426 16.9922 110.426 16.0352V15.9473ZM116.871 15.9473C116.871 15.1504 116.734 14.5332 116.461 14.0957C116.188 13.6543 115.811 13.4336 115.33 13.4336C115.084 13.4336 114.869 13.4727 114.686 13.5508V18.1387C114.861 18.2051 115.08 18.2383 115.342 18.2383C115.826 18.2383 116.201 18.0508 116.467 17.6758C116.736 17.3008 116.871 16.7246 116.871 15.9473ZM111.51 16.0703C111.51 16.7812 111.637 17.3203 111.891 17.6875C112.145 18.0547 112.51 18.2383 112.986 18.2383C113.213 18.2383 113.418 18.2031 113.602 18.1328V13.5332C113.438 13.4668 113.236 13.4336 112.998 13.4336C112.521 13.4336 112.154 13.6465 111.896 14.0723C111.639 14.498 111.51 15.1641 111.51 16.0703ZM123.469 12.6602H124.553V19H123.469V14.377L120.545 19H119.461V12.6602H120.545V17.2891L123.469 12.6602ZM127.477 15.3496H129C129.082 14.5059 129.381 13.8281 129.896 13.3164C130.416 12.8008 131.07 12.543 131.859 12.543C132.688 12.543 133.365 12.8223 133.893 13.3809C134.42 13.9395 134.705 14.666 134.748 15.5605L134.754 15.9004C134.754 16.5176 134.633 17.0742 134.391 17.5703C134.148 18.0664 133.809 18.4492 133.371 18.7188C132.934 18.9844 132.434 19.1172 131.871 19.1172C131.055 19.1172 130.387 18.8516 129.867 18.3203C129.348 17.7852 129.057 17.0918 128.994 16.2402H127.477V19H126.393V12.6602H127.477V15.3496ZM130.066 15.9004C130.066 16.6035 130.229 17.168 130.553 17.5938C130.881 18.0195 131.32 18.2324 131.871 18.2324C132.422 18.2324 132.857 18.0156 133.178 17.582C133.502 17.1484 133.664 16.5449 133.664 15.7715C133.664 15.0801 133.5 14.5176 133.172 14.084C132.844 13.6504 132.406 13.4336 131.859 13.4336C131.32 13.4336 130.887 13.6465 130.559 14.0723C130.23 14.498 130.066 15.1074 130.066 15.9004Z" fill="#5F6979"/>
</svg>
