<svg width="350" height="28" viewBox="0 0 350 28" fill="none" xmlns="http://www.w3.org/2000/svg">
<path d="M340 0.5H10C4.75329 0.5 0.5 4.75329 0.5 10V18C0.5 23.2467 4.75329 27.5 10 27.5H340C345.247 27.5 349.5 23.2467 349.5 18V10C349.5 4.75329 345.247 0.5 340 0.5Z" fill="white" stroke="#F2F2F7"/>
<path d="M12.9902 18V9.46875H15.7793C16.7051 9.46875 17.4004 9.66016 17.8652 10.043C18.334 10.4258 18.5684 10.9922 18.5684 11.7422C18.5684 12.1406 18.4551 12.4941 18.2285 12.8027C18.002 13.1074 17.6934 13.3438 17.3027 13.5117C17.7637 13.6406 18.127 13.8867 18.3926 14.25C18.6621 14.6094 18.7969 15.0391 18.7969 15.5391C18.7969 16.3047 18.5488 16.9062 18.0527 17.3438C17.5566 17.7812 16.8555 18 15.9492 18H12.9902ZM14.1152 14.0098V17.0801H15.9727C16.4961 17.0801 16.9082 16.9453 17.209 16.6758C17.5137 16.4023 17.666 16.0273 17.666 15.5508C17.666 14.5234 17.1074 14.0098 15.9902 14.0098H14.1152ZM14.1152 13.1074H15.8145C16.3066 13.1074 16.6992 12.9844 16.9922 12.7383C17.2891 12.4922 17.4375 12.1582 17.4375 11.7363C17.4375 11.2676 17.3008 10.9277 17.0273 10.7168C16.7539 10.502 16.3379 10.3945 15.7793 10.3945H14.1152V13.1074ZM21.4805 13.8457H23.127C23.8457 13.8535 24.4141 14.041 24.832 14.4082C25.25 14.7754 25.459 15.2734 25.459 15.9023C25.459 16.5352 25.2441 17.043 24.8145 17.4258C24.3848 17.8086 23.8066 18 23.0801 18H20.3965V11.6602H21.4805V13.8457ZM27.7207 18H26.6309V11.6602H27.7207V18ZM21.4805 14.7305V17.1152H23.0918C23.498 17.1152 23.8125 17.0117 24.0352 16.8047C24.2578 16.5938 24.3691 16.3066 24.3691 15.9434C24.3691 15.5918 24.2598 15.3047 24.041 15.082C23.8262 14.8555 23.5234 14.7383 23.1328 14.7305H21.4805ZM32.3965 12.0234C33.1934 12.0234 33.8301 12.291 34.3066 12.8262C34.7871 13.3574 35.0273 14.0586 35.0273 14.9297V15.0293C35.0273 15.627 34.9121 16.1621 34.6816 16.6348C34.4512 17.1035 34.1191 17.4688 33.6855 17.7305C33.2559 17.9883 32.7598 18.1172 32.1973 18.1172C31.3457 18.1172 30.6602 17.834 30.1406 17.2676C29.6211 16.6973 29.3613 15.9336 29.3613 14.9766V14.4492C29.3613 13.1172 29.6074 12.0586 30.0996 11.2734C30.5957 10.4883 31.3262 10.0098 32.291 9.83789C32.8379 9.74023 33.207 9.62109 33.3984 9.48047C33.5898 9.33984 33.6855 9.14648 33.6855 8.90039H34.5762C34.5762 9.38867 34.4648 9.76953 34.2422 10.043C34.0234 10.3164 33.6719 10.5098 33.1875 10.623L32.3789 10.8047C31.7344 10.957 31.25 11.2148 30.9258 11.5781C30.6055 11.9375 30.3965 12.418 30.2988 13.0195C30.873 12.3555 31.5723 12.0234 32.3965 12.0234ZM32.1855 12.9141C31.6543 12.9141 31.2324 13.0938 30.9199 13.4531C30.6074 13.8086 30.4512 14.3027 30.4512 14.9355V15.0293C30.4512 15.709 30.6074 16.248 30.9199 16.6465C31.2363 17.041 31.6621 17.2383 32.1973 17.2383C32.7363 17.2383 33.1621 17.0391 33.4746 16.6406C33.7871 16.2422 33.9434 15.6602 33.9434 14.8945C33.9434 14.2969 33.7852 13.8184 33.4688 13.459C33.1562 13.0957 32.7285 12.9141 32.1855 12.9141ZM41.4961 14.9004C41.4961 15.8652 41.2754 16.6426 40.834 17.2324C40.3926 17.8223 39.7949 18.1172 39.041 18.1172C38.2715 18.1172 37.666 17.873 37.2246 17.3848V20.4375H36.1406V11.6602H37.1309L37.1836 12.3633C37.625 11.8164 38.2383 11.543 39.0234 11.543C39.7852 11.543 40.3867 11.8301 40.8281 12.4043C41.2734 12.9785 41.4961 13.7773 41.4961 14.8008V14.9004ZM40.4121 14.7773C40.4121 14.0625 40.2598 13.498 39.9551 13.084C39.6504 12.6699 39.2324 12.4629 38.7012 12.4629C38.0449 12.4629 37.5527 12.7539 37.2246 13.3359V16.3652C37.5488 16.9434 38.0449 17.2324 38.7129 17.2324C39.2324 17.2324 39.6445 17.0273 39.9492 16.6172C40.2578 16.2031 40.4121 15.5898 40.4121 14.7773ZM46.793 18C46.7305 17.875 46.6797 17.6523 46.6406 17.332C46.1367 17.8555 45.5352 18.1172 44.8359 18.1172C44.2109 18.1172 43.6973 17.9414 43.2949 17.5898C42.8965 17.2344 42.6973 16.7852 42.6973 16.2422C42.6973 15.582 42.9473 15.0703 43.4473 14.707C43.9512 14.3398 44.6582 14.1562 45.5684 14.1562H46.623V13.6582C46.623 13.2793 46.5098 12.9785 46.2832 12.7559C46.0566 12.5293 45.7227 12.416 45.2812 12.416C44.8945 12.416 44.5703 12.5137 44.3086 12.709C44.0469 12.9043 43.916 13.1406 43.916 13.418H42.8262C42.8262 13.1016 42.9375 12.7969 43.1602 12.5039C43.3867 12.207 43.6914 11.9727 44.0742 11.8008C44.4609 11.6289 44.8848 11.543 45.3457 11.543C46.0762 11.543 46.6484 11.7266 47.0625 12.0938C47.4766 12.457 47.6914 12.959 47.707 13.5996V16.5176C47.707 17.0996 47.7812 17.5625 47.9297 17.9062V18H46.793ZM44.9941 17.1738C45.334 17.1738 45.6562 17.0859 45.9609 16.9102C46.2656 16.7344 46.4863 16.5059 46.623 16.2246V14.9238H45.7734C44.4453 14.9238 43.7812 15.3125 43.7812 16.0898C43.7812 16.4297 43.8945 16.6953 44.1211 16.8867C44.3477 17.0781 44.6387 17.1738 44.9941 17.1738ZM54.0234 12.5391H51.8965V18H50.8125V12.5391H48.7266V11.6602H54.0234V12.5391ZM56.2617 13.8457H57.9082C58.627 13.8535 59.1953 14.041 59.6133 14.4082C60.0312 14.7754 60.2402 15.2734 60.2402 15.9023C60.2402 16.5352 60.0254 17.043 59.5957 17.4258C59.166 17.8086 58.5879 18 57.8613 18H55.1777V11.6602H56.2617V13.8457ZM56.2617 14.7305V17.1152H57.873C58.2793 17.1152 58.5938 17.0117 58.8164 16.8047C59.0391 16.5938 59.1504 16.3066 59.1504 15.9434C59.1504 15.5918 59.041 15.3047 58.8223 15.082C58.6074 14.8555 58.3047 14.7383 57.9141 14.7305H56.2617ZM64.3359 14.9473C64.3359 13.8887 64.541 13.0566 64.9512 12.4512C65.3613 11.8457 65.9238 11.543 66.6387 11.543C66.9707 11.543 67.2617 11.5996 67.5117 11.7129V9H68.5957V11.748C68.8691 11.6113 69.1895 11.543 69.5566 11.543C70.2754 11.543 70.8398 11.8457 71.25 12.4512C71.6602 13.0566 71.8652 13.9297 71.8652 15.0703C71.8652 16.0039 71.6602 16.7461 71.25 17.2969C70.8438 17.8477 70.2832 18.123 69.5684 18.123C69.1895 18.123 68.8652 18.0605 68.5957 17.9355V20.4375H67.5117V17.9531C67.2539 18.0664 66.959 18.123 66.627 18.123C65.916 18.123 65.3555 17.8477 64.9453 17.2969C64.5391 16.7461 64.3359 15.9922 64.3359 15.0352V14.9473ZM70.7812 14.9473C70.7812 14.1504 70.6445 13.5332 70.3711 13.0957C70.0977 12.6543 69.7207 12.4336 69.2402 12.4336C68.9941 12.4336 68.7793 12.4727 68.5957 12.5508V17.1387C68.7715 17.2051 68.9902 17.2383 69.252 17.2383C69.7363 17.2383 70.1113 17.0508 70.377 16.6758C70.6465 16.3008 70.7812 15.7246 70.7812 14.9473ZM65.4199 15.0703C65.4199 15.7812 65.5469 16.3203 65.8008 16.6875C66.0547 17.0547 66.4199 17.2383 66.8965 17.2383C67.123 17.2383 67.3281 17.2031 67.5117 17.1328V12.5332C67.3477 12.4668 67.1465 12.4336 66.9082 12.4336C66.4316 12.4336 66.0645 12.6465 65.8066 13.0723C65.5488 13.498 65.4199 14.1641 65.4199 15.0703ZM72.9902 14.7715C72.9902 14.1504 73.1113 13.5918 73.3535 13.0957C73.5996 12.5996 73.9395 12.2168 74.373 11.9473C74.8105 11.6777 75.3086 11.543 75.8672 11.543C76.7305 11.543 77.4277 11.8418 77.959 12.4395C78.4941 13.0371 78.7617 13.832 78.7617 14.8242V14.9004C78.7617 15.5176 78.6426 16.0723 78.4043 16.5645C78.1699 17.0527 77.832 17.4336 77.3906 17.707C76.9531 17.9805 76.4492 18.1172 75.8789 18.1172C75.0195 18.1172 74.3223 17.8184 73.7871 17.2207C73.2559 16.623 72.9902 15.832 72.9902 14.8477V14.7715ZM74.0801 14.9004C74.0801 15.6035 74.2422 16.168 74.5664 16.5938C74.8945 17.0195 75.332 17.2324 75.8789 17.2324C76.4297 17.2324 76.8672 17.0176 77.1914 16.5879C77.5156 16.1543 77.6777 15.5488 77.6777 14.7715C77.6777 14.0762 77.5117 13.5137 77.1797 13.084C76.8516 12.6504 76.4141 12.4336 75.8672 12.4336C75.332 12.4336 74.9004 12.6465 74.5723 13.0723C74.2441 13.498 74.0801 14.1074 74.0801 14.9004ZM84.7031 12.5391H82.5762V18H81.4922V12.5391H79.4062V11.6602H84.7031V12.5391ZM85.2246 14.7715C85.2246 14.1504 85.3457 13.5918 85.5879 13.0957C85.834 12.5996 86.1738 12.2168 86.6074 11.9473C87.0449 11.6777 87.543 11.543 88.1016 11.543C88.9648 11.543 89.6621 11.8418 90.1934 12.4395C90.7285 13.0371 90.9961 13.832 90.9961 14.8242V14.9004C90.9961 15.5176 90.877 16.0723 90.6387 16.5645C90.4043 17.0527 90.0664 17.4336 89.625 17.707C89.1875 17.9805 88.6836 18.1172 88.1133 18.1172C87.2539 18.1172 86.5566 17.8184 86.0215 17.2207C85.4902 16.623 85.2246 15.832 85.2246 14.8477V14.7715ZM86.3145 14.9004C86.3145 15.6035 86.4766 16.168 86.8008 16.5938C87.1289 17.0195 87.5664 17.2324 88.1133 17.2324C88.6641 17.2324 89.1016 17.0176 89.4258 16.5879C89.75 16.1543 89.9121 15.5488 89.9121 14.7715C89.9121 14.0762 89.7461 13.5137 89.4141 13.084C89.0859 12.6504 88.6484 12.4336 88.1016 12.4336C87.5664 12.4336 87.1348 12.6465 86.8066 13.0723C86.4785 13.498 86.3145 14.1074 86.3145 14.9004ZM96.4512 12.5566H93.5273V18H92.4375V11.6602H96.4512V12.5566ZM102.75 14.9004C102.75 15.8652 102.529 16.6426 102.088 17.2324C101.646 17.8223 101.049 18.1172 100.295 18.1172C99.5254 18.1172 98.9199 17.873 98.4785 17.3848V20.4375H97.3945V11.6602H98.3848L98.4375 12.3633C98.8789 11.8164 99.4922 11.543 100.277 11.543C101.039 11.543 101.641 11.8301 102.082 12.4043C102.527 12.9785 102.75 13.7773 102.75 14.8008V14.9004ZM101.666 14.7773C101.666 14.0625 101.514 13.498 101.209 13.084C100.904 12.6699 100.486 12.4629 99.9551 12.4629C99.2988 12.4629 98.8066 12.7539 98.4785 13.3359V16.3652C98.8027 16.9434 99.2988 17.2324 99.9668 17.2324C100.486 17.2324 100.898 17.0273 101.203 16.6172C101.512 16.2031 101.666 15.5898 101.666 14.7773ZM108.047 18C107.984 17.875 107.934 17.6523 107.895 17.332C107.391 17.8555 106.789 18.1172 106.09 18.1172C105.465 18.1172 104.951 17.9414 104.549 17.5898C104.15 17.2344 103.951 16.7852 103.951 16.2422C103.951 15.582 104.201 15.0703 104.701 14.707C105.205 14.3398 105.912 14.1562 106.822 14.1562H107.877V13.6582C107.877 13.2793 107.764 12.9785 107.537 12.7559C107.311 12.5293 106.977 12.416 106.535 12.416C106.148 12.416 105.824 12.5137 105.562 12.709C105.301 12.9043 105.17 13.1406 105.17 13.418H104.08C104.08 13.1016 104.191 12.7969 104.414 12.5039C104.641 12.207 104.945 11.9727 105.328 11.8008C105.715 11.6289 106.139 11.543 106.6 11.543C107.33 11.543 107.902 11.7266 108.316 12.0938C108.73 12.457 108.945 12.959 108.961 13.5996V16.5176C108.961 17.0996 109.035 17.5625 109.184 17.9062V18H108.047ZM106.248 17.1738C106.588 17.1738 106.91 17.0859 107.215 16.9102C107.52 16.7344 107.74 16.5059 107.877 16.2246V14.9238H107.027C105.699 14.9238 105.035 15.3125 105.035 16.0898C105.035 16.4297 105.148 16.6953 105.375 16.8867C105.602 17.0781 105.893 17.1738 106.248 17.1738ZM110.426 14.9473C110.426 13.8887 110.631 13.0566 111.041 12.4512C111.451 11.8457 112.014 11.543 112.729 11.543C113.061 11.543 113.352 11.5996 113.602 11.7129V9H114.686V11.748C114.959 11.6113 115.279 11.543 115.646 11.543C116.365 11.543 116.93 11.8457 117.34 12.4512C117.75 13.0566 117.955 13.9297 117.955 15.0703C117.955 16.0039 117.75 16.7461 117.34 17.2969C116.934 17.8477 116.373 18.123 115.658 18.123C115.279 18.123 114.955 18.0605 114.686 17.9355V20.4375H113.602V17.9531C113.344 18.0664 113.049 18.123 112.717 18.123C112.006 18.123 111.445 17.8477 111.035 17.2969C110.629 16.7461 110.426 15.9922 110.426 15.0352V14.9473ZM116.871 14.9473C116.871 14.1504 116.734 13.5332 116.461 13.0957C116.188 12.6543 115.811 12.4336 115.33 12.4336C115.084 12.4336 114.869 12.4727 114.686 12.5508V17.1387C114.861 17.2051 115.08 17.2383 115.342 17.2383C115.826 17.2383 116.201 17.0508 116.467 16.6758C116.736 16.3008 116.871 15.7246 116.871 14.9473ZM111.51 15.0703C111.51 15.7812 111.637 16.3203 111.891 16.6875C112.145 17.0547 112.51 17.2383 112.986 17.2383C113.213 17.2383 113.418 17.2031 113.602 17.1328V12.5332C113.438 12.4668 113.236 12.4336 112.998 12.4336C112.521 12.4336 112.154 12.6465 111.896 13.0723C111.639 13.498 111.51 14.1641 111.51 15.0703ZM123.469 11.6602H124.553V18H123.469V13.377L120.545 18H119.461V11.6602H120.545V16.2891L123.469 11.6602ZM127.477 14.3496H129C129.082 13.5059 129.381 12.8281 129.896 12.3164C130.416 11.8008 131.07 11.543 131.859 11.543C132.688 11.543 133.365 11.8223 133.893 12.3809C134.42 12.9395 134.705 13.666 134.748 14.5605L134.754 14.9004C134.754 15.5176 134.633 16.0742 134.391 16.5703C134.148 17.0664 133.809 17.4492 133.371 17.7188C132.934 17.9844 132.434 18.1172 131.871 18.1172C131.055 18.1172 130.387 17.8516 129.867 17.3203C129.348 16.7852 129.057 16.0918 128.994 15.2402H127.477V18H126.393V11.6602H127.477V14.3496ZM130.066 14.9004C130.066 15.6035 130.229 16.168 130.553 16.5938C130.881 17.0195 131.32 17.2324 131.871 17.2324C132.422 17.2324 132.857 17.0156 133.178 16.582C133.502 16.1484 133.664 15.5449 133.664 14.7715C133.664 14.0801 133.5 13.5176 133.172 13.084C132.844 12.6504 132.406 12.4336 131.859 12.4336C131.32 12.4336 130.887 12.6465 130.559 13.0723C130.23 13.498 130.066 14.1074 130.066 14.9004Z" fill="#5F6979"/>
</svg>
