<svg width="20" height="20" viewBox="0 0 20 20" fill="none" xmlns="http://www.w3.org/2000/svg">
<g clip-path="url(#clip0)">
<path d="M9.39994 7.56554C9.6305 7.72087 9.93216 7.4865 9.84656 7.22542C9.76279 6.96999 9.39308 6.95671 9.29069 7.20513C9.23744 7.33406 9.28275 7.48833 9.39994 7.56554Z" fill="#5F6979"/>
<path d="M19.4874 10.2063C19.1894 9.9084 18.5655 9.70927 17.5795 9.59758C17.0034 9.53227 16.4859 9.51869 16.3166 9.51595C16.0403 9.40501 15.6503 9.2332 15.1719 9.00294C15.2575 8.88667 15.2481 8.72249 15.1429 8.6172C15.0268 8.50123 14.8388 8.50123 14.7229 8.6172L14.6129 8.72722C14.468 8.65413 14.3177 8.57692 14.162 8.49559L14.167 8.49055C14.283 8.37459 14.283 8.1866 14.167 8.07048C14.051 7.95451 13.8629 7.95451 13.7469 8.07048L13.6136 8.20384C13.4701 8.12602 13.3233 8.0453 13.1732 7.96168L13.191 7.94383C13.307 7.82786 13.307 7.63987 13.191 7.52375C13.0751 7.40779 12.8869 7.40779 12.771 7.52375L12.6371 7.65757C12.4957 7.57609 12.352 7.49232 12.2062 7.40596L12.2151 7.39711C12.3311 7.28114 12.3311 7.09315 12.2151 6.97703C12.0991 6.86106 11.9111 6.86106 11.795 6.97703L11.6815 7.09071C11.0666 6.71519 10.422 6.30137 9.76315 5.85017C9.64459 5.7609 8.71731 5.08463 8.02731 5.21067C7.79538 5.25309 7.60724 5.37974 7.48303 5.57704C7.02771 6.3 7.02695 6.86946 7.50256 7.47264C7.0567 7.74638 6.5997 7.94032 6.20312 7.94032C5.50442 7.94032 5.13699 7.27168 4.8129 6.68193C4.54526 6.19502 4.29257 5.73512 3.8403 5.73512C3.76599 5.73512 3.68939 5.73969 3.61279 5.7487C2.82498 5.84025 2.1243 6.35554 1.78403 7.09361C1.50021 7.70991 1.1073 8.62315 0.847594 9.47444C0.546843 10.4597 0.490538 11.1238 0.675628 11.5376L0.0217884 13.1114C-0.0271923 13.2293 0.004546 13.3653 0.100829 13.4492C0.163085 13.5037 1.66714 14.7825 5.02164 14.7825H15.6805C17.8491 14.7825 19.5034 13.8353 19.6199 12.5561C19.8217 12.3599 19.9542 12.0568 19.9894 11.6987C20.045 11.1344 19.8573 10.5764 19.4874 10.2063V10.2063ZM18.5533 10.3807C18.1337 10.5424 17.5676 10.7559 17.0805 10.923C16.7668 11.0305 15.812 11.3578 15.3767 11.1091C15.3465 11.0919 15.3117 11.0684 15.2774 11.0328C16.1071 10.915 16.5744 10.6863 16.701 10.3376C16.7228 10.2775 16.7376 10.2052 16.7344 10.1232C17.3539 10.1545 18.0655 10.2389 18.5533 10.3807ZM11.0336 8.15852C11.0916 8.2165 11.1676 8.2455 11.2437 8.2455C11.3197 8.2455 11.3957 8.2165 11.4537 8.15852L11.7724 7.83992C11.9182 7.92674 12.0614 8.01112 12.2021 8.09276L12.0096 8.28517C11.8936 8.40114 11.8936 8.58928 12.0096 8.70524C12.0675 8.76323 12.1437 8.79222 12.2197 8.79222C12.2957 8.79222 12.3716 8.76323 12.4298 8.70524L12.7369 8.39808C12.8872 8.48231 13.0337 8.56334 13.1762 8.64116L12.9855 8.83189C12.8695 8.94786 12.8695 9.136 12.9855 9.25197C13.0436 9.30995 13.1196 9.33894 13.1956 9.33894C13.2716 9.33894 13.3476 9.30995 13.4057 9.25197L13.7234 8.93428C13.8795 9.01637 14.0295 9.09404 14.1731 9.16713L13.9616 9.37862C13.8456 9.49458 13.8456 9.68272 13.9616 9.79869C14.0196 9.85667 14.0957 9.88567 14.1717 9.88567C14.2477 9.88567 14.3237 9.85667 14.3817 9.79869L14.7337 9.44667C15.4429 9.79228 15.9208 9.99477 16.0855 10.0628C16.1177 10.1004 16.1326 10.1274 16.1383 10.1414C16.0856 10.2133 15.7596 10.4039 14.8141 10.4879C13.6731 10.5894 12.2146 11.7761 11.8776 12.6103C10.993 12.519 10.0029 12.405 8.99029 12.2819C8.88287 11.7927 8.47821 11.3159 7.76715 10.8438L10.9295 7.32463C11.0371 7.39207 11.1436 7.45829 11.2491 7.52299L11.0338 7.73845C10.9176 7.85441 10.9176 8.04255 11.0336 8.15852V8.15852ZM7.98566 5.8935C8.02106 5.8372 8.06546 5.80775 8.13382 5.79524C8.38635 5.7487 8.80612 5.94111 9.13235 6.14054C8.84976 6.42832 8.44281 6.8043 7.9939 7.13816C7.64752 6.72465 7.6579 6.41413 7.98566 5.8935V5.8935ZM2.32358 7.34217C2.57764 6.79103 3.09781 6.4065 3.68146 6.33876C3.73547 6.3325 3.78888 6.32914 3.8403 6.32914C3.94116 6.32914 4.16959 6.74479 4.29227 6.96803C4.49551 7.33805 4.74103 7.78453 5.1019 8.10603C4.72989 8.30791 4.2915 8.34865 3.88684 8.2165L2.17999 7.65941C2.22623 7.5558 2.27368 7.45066 2.32358 7.34217ZM1.58642 9.1299C2.08768 9.25395 3.26474 9.56065 4.50268 9.99339C4.53519 10.0047 4.56814 10.01 4.60065 10.01C4.72348 10.01 4.83838 9.93343 4.8811 9.8109C4.93512 9.65617 4.85364 9.48665 4.69876 9.43248C3.49271 9.01103 2.34265 8.70662 1.79623 8.5699C1.84247 8.45302 1.89145 8.33201 1.94348 8.2072L3.70236 8.78123C3.91949 8.85219 4.14349 8.88713 4.36642 8.88713C4.75537 8.88713 5.14111 8.78078 5.48093 8.5731L5.68127 8.45073C5.83859 8.50398 6.01163 8.53435 6.20312 8.53435C7.52972 8.53435 9.10458 7.02464 9.63086 6.47868C9.89895 6.66026 10.1628 6.83421 10.4214 7.00129L7.24972 10.5308C6.84277 10.3048 6.36517 10.0796 5.81509 9.85423C5.66327 9.79213 5.48978 9.86476 5.42767 10.0166C5.36542 10.1684 5.43805 10.3418 5.58987 10.404C7.4397 11.1619 8.10971 11.7826 8.32928 12.2006C5.14874 11.8055 1.92593 11.3501 1.19855 11.2464C1.10501 10.9536 1.18176 10.2749 1.58642 9.1299ZM18.1093 13.6416C17.4731 13.9943 16.6107 14.1885 15.6805 14.1885H5.02164C2.51691 14.1885 1.11722 13.4263 0.660064 13.1236L1.19092 11.8455C2.83261 12.0796 12.3222 13.4175 14.7618 13.4175C14.8198 13.4175 14.8774 13.417 14.9347 13.4163C15.0987 13.4138 15.2298 13.2789 15.2275 13.115C15.225 12.9524 15.0926 12.8222 14.9305 12.8222C14.929 12.8222 14.9276 12.8222 14.9263 12.8222C14.8718 12.823 14.817 12.8233 14.7618 12.8233C14.2718 12.8233 13.4756 12.7661 12.5067 12.6731C12.6309 12.4719 12.8647 12.1925 13.2187 11.8972C13.6937 11.501 14.2056 11.2223 14.6351 11.1192C14.7303 11.3397 14.8797 11.5092 15.0821 11.6249C15.2943 11.7462 15.5446 11.7938 15.8111 11.7938C16.2887 11.7938 16.8182 11.6409 17.2732 11.4848C17.9635 11.2481 18.8083 10.9202 19.187 10.7714C19.3757 11.0458 19.4232 11.387 19.3983 11.6406C19.376 11.8663 19.297 12.0556 19.1894 12.1458C18.9636 12.223 17.7629 12.612 16.0899 12.7627C15.9265 12.7775 15.8059 12.9219 15.8207 13.0853C15.8355 13.2487 15.9807 13.3691 16.1433 13.3545C17.3913 13.242 18.3777 13.0055 18.9335 12.8471C18.7533 13.2325 18.3664 13.4991 18.1093 13.6416V13.6416Z" fill="#5F6979"/>
</g>
<defs>
<clipPath id="clip0">
<rect width="20" height="20" fill="white"/>
</clipPath>
</defs>
</svg>
