<svg width="20" height="20" viewBox="0 0 20 20" fill="none" xmlns="http://www.w3.org/2000/svg">
<g clip-path="url(#clip0)">
<path d="M15.7915 12.3206C15.399 11.5023 13.9948 10.3664 12.6382 9.26894C11.8815 8.65726 11.1665 8.07894 10.7107 7.62312C10.5965 7.50812 10.4257 7.47144 10.2749 7.52562C9.99403 7.6273 9.82067 7.70562 9.68403 7.76644C9.47571 7.85976 9.40571 7.89144 9.12485 7.91976C9.00067 7.93226 8.88903 7.99894 8.81985 8.10226C8.23067 8.98308 7.62067 8.90808 7.21317 8.77144C7.08317 8.72812 7.05985 8.67226 7.04735 8.61894C6.95985 8.25312 7.39903 7.40144 7.96817 6.83226C9.32235 5.47726 10.0207 5.13808 11.4957 5.79726C13.169 6.54558 14.8457 7.13144 14.8624 7.13726C15.0815 7.21308 15.3174 7.09808 15.3932 6.88058C15.4682 6.66308 15.354 6.42558 15.1365 6.34976C15.1198 6.34394 13.4765 5.76976 11.8365 5.03558C9.92567 4.1814 8.87731 4.7439 7.37981 6.24226C6.80981 6.81226 6.03563 7.96558 6.23563 8.81144C6.32145 9.17144 6.57481 9.43812 6.95145 9.56226C7.89563 9.87394 8.75727 9.57558 9.39895 8.72394C9.66395 8.68312 9.80813 8.62312 10.0248 8.52562C10.1031 8.49062 10.1948 8.4498 10.3165 8.40062C10.7931 8.84812 11.4365 9.36894 12.114 9.91644C13.339 10.9073 14.7281 12.0306 15.0406 12.6806C15.1948 13.0014 15.029 13.2106 14.9165 13.3064C14.7515 13.4481 14.5256 13.4931 14.4031 13.4073C14.2681 13.3148 14.0923 13.3089 13.9531 13.3923C13.8131 13.4756 13.7348 13.6331 13.7523 13.7948C13.7806 14.0598 13.5381 14.2114 13.4331 14.2639C13.1665 14.3989 12.8881 14.3756 12.784 14.2789C12.6673 14.1706 12.4998 14.1389 12.3515 14.1939C12.2031 14.2498 12.0998 14.3864 12.0848 14.5448C12.0598 14.8181 11.8573 15.0806 11.5931 15.1831C11.4656 15.2314 11.2806 15.2606 11.1148 15.1089C11.0115 15.0156 10.8681 14.9797 10.734 15.0122C10.5981 15.0455 10.489 15.1439 10.4415 15.2747C10.4256 15.3164 10.3898 15.4164 9.99977 15.4164C9.72227 15.4164 9.22309 15.2289 8.97895 15.0672C8.68645 14.8747 6.85227 13.5064 5.26813 12.1797C5.04563 11.9922 4.66063 11.5905 4.32063 11.2355C4.01895 10.9205 3.74313 10.6347 3.60145 10.5147C3.42395 10.3647 3.16145 10.3872 3.01395 10.5639C2.86563 10.7397 2.88727 11.0031 3.06313 11.1514C3.19231 11.2606 3.44231 11.5247 3.71813 11.8122C4.08981 12.2005 4.47395 12.6022 4.73231 12.8189C6.28399 14.1181 8.14899 15.5206 8.52063 15.7647C8.82731 15.9664 9.48813 16.2497 9.99981 16.2497C10.4106 16.2497 10.7265 16.1555 10.9456 15.9714C11.239 16.0856 11.5723 16.0864 11.8931 15.9614C12.2723 15.8147 12.584 15.5189 12.7606 15.1606C13.089 15.2306 13.4648 15.1814 13.8065 15.0098C14.1406 14.8414 14.3823 14.5839 14.5023 14.2831C14.834 14.3006 15.1756 14.1831 15.4581 13.9406C15.9365 13.5314 16.0681 12.8948 15.7915 12.3206Z" fill="#5F6979"/>
<path d="M8.33318 5.4165H4.58318C4.35318 5.4165 4.1665 5.60318 4.1665 5.83318C4.1665 6.06318 4.35318 6.24986 4.58318 6.24986H8.33318C8.56318 6.24986 8.74986 6.06318 8.74986 5.83318C8.74986 5.60318 8.56318 5.4165 8.33318 5.4165Z" fill="#5F6979"/>
<path d="M17.0126 11.4339C16.8834 11.2431 16.6251 11.1906 16.4342 11.3206L15.2159 12.1389C15.0251 12.2673 14.9742 12.5264 15.1026 12.7173C15.1834 12.8364 15.3151 12.9014 15.4493 12.9014C15.5285 12.9014 15.6093 12.8789 15.681 12.8306L16.8993 12.0123C17.0901 11.8839 17.1409 11.6248 17.0126 11.4339Z" fill="#5F6979"/>
<path d="M14.4257 13.4224C14.1274 13.1874 12.7932 11.8216 11.9682 10.9616C11.809 10.7949 11.5449 10.7891 11.379 10.9491C11.2123 11.1083 11.2073 11.3724 11.3665 11.5383C11.5807 11.7616 13.4698 13.7308 13.909 14.0775C13.9848 14.1375 14.0765 14.1667 14.1665 14.1667C14.289 14.1667 14.4115 14.1117 14.4948 14.0075C14.6374 13.8274 14.6066 13.5649 14.4257 13.4224Z" fill="#5F6979"/>
<path d="M12.7611 14.2582C12.2619 13.859 11.0078 12.5265 10.7244 12.2182C10.5677 12.0482 10.3052 12.0382 10.1352 12.1932C9.96607 12.349 9.95443 12.6132 10.1103 12.7824C10.1253 12.7982 11.6219 14.4141 12.2402 14.9091C12.3169 14.9699 12.4094 14.9999 12.5002 14.9999C12.6219 14.9999 12.7436 14.9457 12.8261 14.8441C12.9695 14.664 12.9403 14.4015 12.7611 14.2582Z" fill="#5F6979"/>
<path d="M11.1028 15.0974C10.5086 14.5966 9.29277 13.3024 9.05527 13.0482C8.89777 12.8799 8.63359 12.8707 8.46609 13.0282C8.29777 13.1857 8.28941 13.449 8.44609 13.6174C8.78777 13.9832 9.95109 15.2166 10.5653 15.7349C10.6436 15.8007 10.7386 15.8332 10.8336 15.8332C10.9519 15.8332 11.0703 15.7824 11.1528 15.6849C11.3011 15.5082 11.2786 15.2457 11.1028 15.0974Z" fill="#5F6979"/>
<path d="M4.87 4.69749C4.15582 4.02081 1.3 3.80163 0.44168 3.75081C0.323359 3.74499 0.21418 3.78413 0.130859 3.86331C0.0475 3.94163 0 4.05163 0 4.16663V11.6666C0 11.8966 0.18668 12.0833 0.41668 12.0833H2.91668C3.09668 12.0833 3.25668 11.9675 3.3125 11.7958C3.37332 11.6091 4.80918 7.20249 4.99832 5.03581C5.00918 4.90913 4.9625 4.78413 4.87 4.69749ZM2.6125 11.25H0.83332V4.61331C2.1725 4.71913 3.6175 4.94913 4.1425 5.20413C3.92168 7.02913 2.9225 10.2716 2.6125 11.25Z" fill="#5F6979"/>
<path d="M19.5835 4.58301C16.3118 4.58301 14.4968 5.42051 14.421 5.45551C14.3126 5.50633 14.2318 5.60051 14.1985 5.71469C14.1651 5.82887 14.1818 5.95137 14.2443 6.05301C14.7593 6.88219 16.3718 11.4872 16.6818 12.6105C16.7318 12.7913 16.896 12.9163 17.0835 12.9163H19.5835C19.8135 12.9163 20.0001 12.7296 20.0001 12.4996V4.99965C20.0001 4.76883 19.8135 4.58301 19.5835 4.58301ZM19.1668 12.083H17.3951C17.0001 10.7963 15.8335 7.44133 15.1826 6.05469C15.8185 5.83887 17.1843 5.46801 19.1668 5.42137V12.083Z" fill="#5F6979"/>
</g>
<defs>
<clipPath id="clip0">
<rect width="20" height="20" fill="white"/>
</clipPath>
</defs>
</svg>
