<svg width="20" height="20" viewBox="0 0 20 20" fill="none" xmlns="http://www.w3.org/2000/svg">
<path d="M17.0312 2.34375H16.4453V1.75781C16.4453 0.788555 15.6568 0 14.6875 0H2.96875C1.99949 0 1.21094 0.788555 1.21094 1.75781V15.8984C1.21094 16.8677 1.99949 17.6562 2.96875 17.6562H3.55469V18.2422C3.55469 19.2114 4.34324 20 5.3125 20H17.0312C18.0005 20 18.7891 19.2114 18.7891 18.2422V4.10156C18.7891 3.1323 18.0005 2.34375 17.0312 2.34375ZM4.06953 4.5159C3.7375 4.84789 3.55469 5.2893 3.55469 5.75883V16.4844H2.96875C2.64566 16.4844 2.38281 16.2215 2.38281 15.8984V1.75781C2.38281 1.43473 2.64566 1.17188 2.96875 1.17188H14.6875C15.0106 1.17188 15.2734 1.43473 15.2734 1.75781V2.34375H6.96977C6.50023 2.34375 6.05883 2.5266 5.72684 2.85859L4.06953 4.5159ZM7.07031 3.51562V5.85938H4.72656V5.75883C4.72656 5.60234 4.7875 5.4552 4.89816 5.34453L6.55547 3.68723C6.66613 3.57656 6.81328 3.51562 6.96977 3.51562H7.07031ZM17.6172 18.2422C17.6172 18.5653 17.3543 18.8281 17.0312 18.8281H5.3125C4.98941 18.8281 4.72656 18.5653 4.72656 18.2422V7.03125H7.65625C7.97984 7.03125 8.24219 6.76891 8.24219 6.44531V3.51562H17.0312C17.3543 3.51562 17.6172 3.77848 17.6172 4.10156V18.2422Z" fill="#5F6979"/>
<path d="M15.8594 8.28125H6.48438C6.16078 8.28125 5.89844 8.54359 5.89844 8.86719C5.89844 9.19078 6.16078 9.45312 6.48438 9.45312H15.8594C16.183 9.45312 16.4453 9.19078 16.4453 8.86719C16.4453 8.54359 16.183 8.28125 15.8594 8.28125Z" fill="#5F6979"/>
<path d="M15.8594 10.625H6.48438C6.16078 10.625 5.89844 10.8873 5.89844 11.2109C5.89844 11.5345 6.16078 11.7969 6.48438 11.7969H15.8594C16.183 11.7969 16.4453 11.5345 16.4453 11.2109C16.4453 10.8873 16.183 10.625 15.8594 10.625Z" fill="#5F6979"/>
<path d="M15.8594 12.9688H6.48438C6.16078 12.9688 5.89844 13.2311 5.89844 13.5547C5.89844 13.8783 6.16078 14.1406 6.48438 14.1406H15.8594C16.183 14.1406 16.4453 13.8783 16.4453 13.5547C16.4453 13.2311 16.183 12.9688 15.8594 12.9688Z" fill="#5F6979"/>
<path d="M15.8594 15.3125H6.48438C6.16078 15.3125 5.89844 15.5748 5.89844 15.8984C5.89844 16.222 6.16078 16.4844 6.48438 16.4844H15.8594C16.183 16.4844 16.4453 16.222 16.4453 15.8984C16.4453 15.5748 16.183 15.3125 15.8594 15.3125Z" fill="#5F6979"/>
</svg>
