<svg width="53" height="53" viewBox="0 0 53 53" fill="none" xmlns="http://www.w3.org/2000/svg">
<path d="M48 0.5H5C2.51472 0.5 0.5 2.51472 0.5 5V48C0.5 50.4853 2.51472 52.5 5 52.5H48C50.4853 52.5 52.5 50.4853 52.5 48V5C52.5 2.51472 50.4853 0.5 48 0.5Z" fill="#F5F6FA" stroke="#F2F2F7"/>
<path d="M34.8295 23.1896C33.6741 18.5867 29.0061 15.7919 24.4032 16.9474C20.8061 17.8504 18.1942 20.9592 17.9251 24.6581C15.371 25.0793 13.642 27.4912 14.0632 30.0453C14.4376 32.3159 16.4051 33.9787 18.7063 33.9696H22.6121V32.4073H18.7063C16.9806 32.4073 15.5816 31.0083 15.5816 29.2826C15.5816 27.5569 16.9806 26.1579 18.7063 26.1579C19.1377 26.1579 19.4874 25.8082 19.4874 25.3768C19.4835 21.494 22.6281 18.3431 26.5109 18.3393C29.872 18.3359 32.7654 20.7121 33.4156 24.0097C33.4798 24.339 33.747 24.5905 34.0796 24.6347C36.2152 24.9388 37.6999 26.9166 37.3958 29.0521C37.1227 30.9698 35.4854 32.3976 33.5484 32.4073H30.4237V33.9696H33.5484C36.5684 33.9605 39.0091 31.5049 39 28.4849C38.9923 25.971 37.2716 23.7861 34.8295 23.1896Z" fill="#24CCB8"/>
<path d="M25.9635 26.3846L22.8389 29.5093L23.9403 30.6107L25.737 28.8219V36.3132H27.2993V28.8219L29.0882 30.6107L30.1896 29.5093L27.065 26.3846C26.7603 26.0817 26.2682 26.0817 25.9635 26.3846Z" fill="#24CCB8"/>
</svg>
