<svg width="500" height="297" viewBox="0 0 500 297" fill="none" xmlns="http://www.w3.org/2000/svg">
<path d="M485 0.5H15C6.99187 0.5 0.5 6.99187 0.5 15V282C0.5 290.008 6.99187 296.5 15 296.5H485C493.008 296.5 499.5 290.008 499.5 282V15C499.5 6.99187 493.008 0.5 485 0.5Z" fill="#F5F6FA" stroke="#037CFF"/>
<path d="M128.012 241V231.047H131.423C132.549 231.047 133.405 231.272 133.993 231.724C134.581 232.175 134.875 232.847 134.875 233.74C134.875 234.196 134.752 234.606 134.506 234.971C134.26 235.335 133.9 235.618 133.426 235.818C133.964 235.964 134.378 236.24 134.67 236.646C134.966 237.047 135.114 237.53 135.114 238.095C135.114 239.029 134.813 239.747 134.212 240.248C133.615 240.749 132.758 241 131.642 241H128.012ZM129.741 236.509V239.619H131.662C132.204 239.619 132.628 239.485 132.934 239.216C133.239 238.947 133.392 238.573 133.392 238.095C133.392 237.06 132.863 236.532 131.806 236.509H129.741ZM129.741 235.237H131.437C131.974 235.237 132.394 235.117 132.694 234.875C133 234.629 133.152 234.283 133.152 233.836C133.152 233.344 133.011 232.988 132.729 232.77C132.451 232.551 132.015 232.441 131.423 232.441H129.741V235.237ZM138.471 235.955H140.098C140.704 235.955 141.232 236.06 141.684 236.27C142.135 236.479 142.477 236.773 142.709 237.151C142.946 237.53 143.064 237.969 143.064 238.471C143.064 239.232 142.796 239.842 142.258 240.303C141.72 240.763 141.005 240.995 140.111 241H136.81V233.604H138.471V235.955ZM145.956 241H144.295V233.604H145.956V241ZM138.471 237.288V239.674H140.091C140.496 239.674 140.815 239.574 141.048 239.373C141.285 239.168 141.403 238.879 141.403 238.505C141.403 238.131 141.287 237.837 141.055 237.623C140.827 237.404 140.517 237.293 140.125 237.288H138.471ZM151.432 234.014C152.361 234.014 153.106 234.326 153.667 234.95C154.228 235.57 154.508 236.413 154.508 237.479V237.562C154.508 238.628 154.202 239.492 153.592 240.152C152.986 240.813 152.161 241.144 151.117 241.144C150.101 241.144 149.281 240.806 148.656 240.132C148.032 239.457 147.72 238.537 147.72 237.37V236.892C147.72 235.297 148.002 234.034 148.567 233.104C149.132 232.175 149.976 231.594 151.097 231.361C151.726 231.234 152.131 231.099 152.313 230.958C152.5 230.812 152.594 230.616 152.594 230.37H153.934C153.934 230.83 153.858 231.204 153.708 231.491C153.558 231.778 153.327 232.013 153.018 232.195C152.708 232.373 152.174 232.542 151.418 232.701C150.725 232.847 150.197 233.107 149.832 233.48C149.472 233.854 149.23 234.371 149.107 235.032C149.768 234.353 150.543 234.014 151.432 234.014ZM151.104 235.347C150.566 235.347 150.144 235.529 149.839 235.894C149.534 236.254 149.381 236.81 149.381 237.562C149.381 238.272 149.531 238.826 149.832 239.223C150.133 239.619 150.561 239.817 151.117 239.817C151.669 239.817 152.095 239.619 152.396 239.223C152.701 238.822 152.854 238.22 152.854 237.418C152.854 236.78 152.701 236.276 152.396 235.907C152.095 235.534 151.664 235.347 151.104 235.347ZM159.067 241.137C158.015 241.137 157.16 240.806 156.504 240.146C155.852 239.48 155.526 238.596 155.526 237.493V237.288C155.526 236.55 155.668 235.891 155.95 235.312C156.237 234.729 156.638 234.276 157.153 233.952C157.668 233.629 158.243 233.467 158.876 233.467C159.883 233.467 160.66 233.788 161.207 234.431C161.758 235.073 162.034 235.982 162.034 237.158V237.828H157.201C157.251 238.439 157.454 238.922 157.81 239.277C158.17 239.633 158.621 239.811 159.163 239.811C159.924 239.811 160.544 239.503 161.022 238.888L161.918 239.742C161.622 240.184 161.225 240.528 160.729 240.774C160.236 241.016 159.683 241.137 159.067 241.137ZM158.869 234.8C158.413 234.8 158.044 234.959 157.762 235.278C157.484 235.597 157.306 236.042 157.229 236.611H160.394V236.488C160.357 235.932 160.209 235.513 159.949 235.23C159.689 234.943 159.329 234.8 158.869 234.8ZM169.807 237.377C169.807 238.521 169.547 239.435 169.027 240.118C168.508 240.797 167.811 241.137 166.936 241.137C166.124 241.137 165.475 240.87 164.987 240.337V243.844H163.326V233.604H164.857L164.926 234.355C165.413 233.763 166.076 233.467 166.915 233.467C167.817 233.467 168.524 233.804 169.034 234.479C169.549 235.148 169.807 236.08 169.807 237.274V237.377ZM168.152 237.233C168.152 236.495 168.004 235.91 167.708 235.477C167.416 235.044 166.997 234.827 166.45 234.827C165.771 234.827 165.284 235.107 164.987 235.668V238.949C165.288 239.523 165.78 239.811 166.464 239.811C166.993 239.811 167.405 239.599 167.701 239.175C168.002 238.746 168.152 238.099 168.152 237.233ZM175.836 233.604H177.49V241H175.836V236.064L172.938 241H171.283V233.604H172.938V238.539L175.836 233.604ZM185.078 234.923H182.679V241H181.018V234.923H178.646V233.604H185.078V234.923ZM189.009 241.137C187.956 241.137 187.102 240.806 186.445 240.146C185.794 239.48 185.468 238.596 185.468 237.493V237.288C185.468 236.55 185.609 235.891 185.892 235.312C186.179 234.729 186.58 234.276 187.095 233.952C187.61 233.629 188.184 233.467 188.817 233.467C189.825 233.467 190.602 233.788 191.148 234.431C191.7 235.073 191.976 235.982 191.976 237.158V237.828H187.143C187.193 238.439 187.396 238.922 187.751 239.277C188.111 239.633 188.562 239.811 189.104 239.811C189.866 239.811 190.485 239.503 190.964 238.888L191.859 239.742C191.563 240.184 191.167 240.528 190.67 240.774C190.178 241.016 189.624 241.137 189.009 241.137ZM188.811 234.8C188.355 234.8 187.986 234.959 187.703 235.278C187.425 235.597 187.247 236.042 187.17 236.611H190.335V236.488C190.299 235.932 190.15 235.513 189.891 235.23C189.631 234.943 189.271 234.8 188.811 234.8ZM196.48 237.404C196.48 236.197 196.717 235.24 197.191 234.533C197.67 233.822 198.335 233.467 199.188 233.467C199.534 233.467 199.848 233.531 200.131 233.658V230.5H201.785V233.686C202.077 233.54 202.419 233.467 202.811 233.467C203.658 233.467 204.321 233.82 204.8 234.526C205.283 235.228 205.524 236.235 205.524 237.548C205.524 238.655 205.283 239.53 204.8 240.173C204.317 240.815 203.658 241.137 202.824 241.137C202.446 241.137 202.1 241.068 201.785 240.932V243.844H200.131V240.959C199.853 241.077 199.534 241.137 199.174 241.137C198.376 241.137 197.738 240.843 197.26 240.255C196.786 239.662 196.528 238.849 196.487 237.814L196.48 237.404ZM203.863 237.404C203.863 236.575 203.731 235.935 203.467 235.483C203.202 235.028 202.829 234.8 202.346 234.8C202.141 234.8 201.954 234.829 201.785 234.889V239.742C201.936 239.788 202.127 239.811 202.359 239.811C203.362 239.811 203.863 239.008 203.863 237.404ZM198.135 237.548C198.135 238.286 198.258 238.849 198.504 239.236C198.75 239.619 199.115 239.811 199.598 239.811C199.803 239.811 199.98 239.788 200.131 239.742V234.868C199.976 234.823 199.803 234.8 199.611 234.8C199.137 234.8 198.773 235.021 198.518 235.463C198.262 235.9 198.135 236.595 198.135 237.548ZM206.646 237.233C206.646 236.509 206.789 235.857 207.076 235.278C207.363 234.695 207.767 234.248 208.286 233.938C208.806 233.624 209.403 233.467 210.077 233.467C211.075 233.467 211.884 233.788 212.504 234.431C213.128 235.073 213.465 235.925 213.516 236.987L213.522 237.377C213.522 238.106 213.381 238.758 213.099 239.332C212.821 239.906 212.42 240.351 211.896 240.665C211.376 240.979 210.774 241.137 210.091 241.137C209.047 241.137 208.211 240.79 207.582 240.098C206.958 239.4 206.646 238.473 206.646 237.315V237.233ZM208.307 237.377C208.307 238.138 208.464 238.735 208.778 239.168C209.093 239.596 209.53 239.811 210.091 239.811C210.651 239.811 211.087 239.592 211.396 239.154C211.711 238.717 211.868 238.076 211.868 237.233C211.868 236.486 211.706 235.894 211.383 235.456C211.064 235.019 210.629 234.8 210.077 234.8C209.535 234.8 209.104 235.016 208.785 235.449C208.466 235.878 208.307 236.52 208.307 237.377ZM220.543 234.923H218.144V241H216.482V234.923H214.11V233.604H220.543V234.923ZM221.138 237.233C221.138 236.509 221.281 235.857 221.568 235.278C221.855 234.695 222.259 234.248 222.778 233.938C223.298 233.624 223.895 233.467 224.569 233.467C225.567 233.467 226.376 233.788 226.996 234.431C227.62 235.073 227.958 235.925 228.008 236.987L228.015 237.377C228.015 238.106 227.873 238.758 227.591 239.332C227.313 239.906 226.912 240.351 226.388 240.665C225.868 240.979 225.267 241.137 224.583 241.137C223.539 241.137 222.703 240.79 222.074 240.098C221.45 239.4 221.138 238.473 221.138 237.315V237.233ZM222.799 237.377C222.799 238.138 222.956 238.735 223.271 239.168C223.585 239.596 224.022 239.811 224.583 239.811C225.144 239.811 225.579 239.592 225.889 239.154C226.203 238.717 226.36 238.076 226.36 237.233C226.36 236.486 226.199 235.894 225.875 235.456C225.556 235.019 225.121 234.8 224.569 234.8C224.027 234.8 223.596 235.016 223.277 235.449C222.958 235.878 222.799 236.52 222.799 237.377ZM234.345 234.943H231.132V241H229.478V233.604H234.345V234.943ZM241.762 237.377C241.762 238.521 241.502 239.435 240.982 240.118C240.463 240.797 239.766 241.137 238.891 241.137C238.079 241.137 237.43 240.87 236.942 240.337V243.844H235.281V233.604H236.812L236.881 234.355C237.368 233.763 238.032 233.467 238.87 233.467C239.772 233.467 240.479 233.804 240.989 234.479C241.504 235.148 241.762 236.08 241.762 237.274V237.377ZM240.107 237.233C240.107 236.495 239.959 235.91 239.663 235.477C239.371 235.044 238.952 234.827 238.405 234.827C237.726 234.827 237.239 235.107 236.942 235.668V238.949C237.243 239.523 237.735 239.811 238.419 239.811C238.948 239.811 239.36 239.599 239.656 239.175C239.957 238.746 240.107 238.099 240.107 237.233ZM247.593 241C247.52 240.859 247.456 240.629 247.401 240.31C246.873 240.861 246.226 241.137 245.46 241.137C244.717 241.137 244.111 240.925 243.642 240.501C243.172 240.077 242.938 239.553 242.938 238.929C242.938 238.14 243.229 237.536 243.812 237.117C244.4 236.693 245.239 236.481 246.328 236.481H247.347V235.996C247.347 235.613 247.24 235.308 247.025 235.08C246.811 234.848 246.485 234.731 246.048 234.731C245.67 234.731 245.36 234.827 245.118 235.019C244.877 235.205 244.756 235.445 244.756 235.736H243.095C243.095 235.331 243.229 234.952 243.498 234.602C243.767 234.246 244.132 233.968 244.592 233.768C245.057 233.567 245.574 233.467 246.144 233.467C247.009 233.467 247.7 233.686 248.215 234.123C248.73 234.556 248.994 235.167 249.008 235.955V239.291C249.008 239.956 249.101 240.487 249.288 240.884V241H247.593ZM245.768 239.804C246.096 239.804 246.403 239.724 246.69 239.564C246.982 239.405 247.201 239.191 247.347 238.922V237.527H246.451C245.836 237.527 245.373 237.634 245.063 237.849C244.754 238.063 244.599 238.366 244.599 238.758C244.599 239.077 244.703 239.332 244.913 239.523C245.127 239.71 245.412 239.804 245.768 239.804ZM250.471 237.404C250.471 236.197 250.708 235.24 251.182 234.533C251.66 233.822 252.326 233.467 253.178 233.467C253.524 233.467 253.839 233.531 254.121 233.658V230.5H255.775V233.686C256.067 233.54 256.409 233.467 256.801 233.467C257.648 233.467 258.312 233.82 258.79 234.526C259.273 235.228 259.515 236.235 259.515 237.548C259.515 238.655 259.273 239.53 258.79 240.173C258.307 240.815 257.648 241.137 256.814 241.137C256.436 241.137 256.09 241.068 255.775 240.932V243.844H254.121V240.959C253.843 241.077 253.524 241.137 253.164 241.137C252.367 241.137 251.729 240.843 251.25 240.255C250.776 239.662 250.519 238.849 250.478 237.814L250.471 237.404ZM257.854 237.404C257.854 236.575 257.721 235.935 257.457 235.483C257.193 235.028 256.819 234.8 256.336 234.8C256.131 234.8 255.944 234.829 255.775 234.889V239.742C255.926 239.788 256.117 239.811 256.35 239.811C257.352 239.811 257.854 239.008 257.854 237.404ZM252.125 237.548C252.125 238.286 252.248 238.849 252.494 239.236C252.74 239.619 253.105 239.811 253.588 239.811C253.793 239.811 253.971 239.788 254.121 239.742V234.868C253.966 234.823 253.793 234.8 253.602 234.8C253.128 234.8 252.763 235.021 252.508 235.463C252.253 235.9 252.125 236.595 252.125 237.548ZM265.564 233.604H267.219V241H265.564V236.064L262.666 241H261.012V233.604H262.666V238.539L265.564 233.604ZM273.604 233.604H275.258V241H273.604V236.064L270.705 241H269.051V233.604H270.705V238.539L273.604 233.604ZM280.542 239.674C281.002 239.159 281.31 238.671 281.465 238.211C281.624 237.746 281.72 237.154 281.752 236.434L281.848 233.604H286.981V239.674H288.007V243.201H286.353V241H281.608V243.201H279.927L279.934 239.674H280.542ZM282.49 239.674H285.327V235.032H283.461L283.413 236.447C283.349 237.805 283.042 238.881 282.49 239.674ZM295.479 233.604V241H293.817V234.943H291.726L291.589 237.521C291.502 238.76 291.263 239.651 290.871 240.193C290.484 240.731 289.889 241 289.087 241H288.574L288.567 239.619L288.909 239.585C289.274 239.535 289.538 239.314 289.702 238.922C289.871 238.525 289.978 237.805 290.023 236.762L290.16 233.604H295.479ZM303.169 233.604V241H301.515V238.286H299.963L298.384 241H296.661L298.404 238.013C297.949 237.821 297.598 237.548 297.352 237.192C297.11 236.837 296.989 236.429 296.989 235.969C296.989 235.281 297.254 234.718 297.782 234.28C298.315 233.838 299.033 233.613 299.936 233.604H303.169ZM298.65 236.01C298.65 236.32 298.764 236.573 298.992 236.769C299.225 236.96 299.521 237.056 299.881 237.056H301.515V234.923H299.983C299.578 234.923 299.254 235.025 299.013 235.23C298.771 235.436 298.65 235.695 298.65 236.01ZM314.1 235.627C314.1 235.955 313.999 236.258 313.799 236.536C313.603 236.81 313.325 237.028 312.965 237.192C313.812 237.489 314.236 238.061 314.236 238.908C314.236 239.587 313.961 240.13 313.409 240.535C312.858 240.936 312.119 241.137 311.194 241.137C310.629 241.137 310.114 241.043 309.649 240.856C309.185 240.665 308.822 240.396 308.562 240.05C308.303 239.699 308.173 239.284 308.173 238.806H309.827C309.827 239.106 309.962 239.359 310.23 239.564C310.499 239.765 310.839 239.865 311.249 239.865C311.655 239.865 311.976 239.772 312.213 239.585C312.454 239.394 312.575 239.145 312.575 238.84C312.575 238.48 312.47 238.22 312.261 238.061C312.051 237.901 311.728 237.821 311.29 237.821H310.101V236.625H311.331C312.074 236.616 312.445 236.311 312.445 235.709C312.445 235.408 312.338 235.174 312.124 235.005C311.91 234.836 311.616 234.752 311.242 234.752C310.878 234.752 310.57 234.843 310.319 235.025C310.069 235.203 309.943 235.429 309.943 235.702H308.289C308.289 235.05 308.562 234.517 309.109 234.103C309.656 233.683 310.351 233.474 311.194 233.474C312.11 233.474 312.824 233.66 313.334 234.034C313.844 234.408 314.1 234.939 314.1 235.627ZM320.067 241C319.994 240.859 319.931 240.629 319.876 240.31C319.347 240.861 318.7 241.137 317.935 241.137C317.192 241.137 316.586 240.925 316.116 240.501C315.647 240.077 315.412 239.553 315.412 238.929C315.412 238.14 315.704 237.536 316.287 237.117C316.875 236.693 317.714 236.481 318.803 236.481H319.821V235.996C319.821 235.613 319.714 235.308 319.5 235.08C319.286 234.848 318.96 234.731 318.522 234.731C318.144 234.731 317.834 234.827 317.593 235.019C317.351 235.205 317.23 235.445 317.23 235.736H315.569C315.569 235.331 315.704 234.952 315.973 234.602C316.242 234.246 316.606 233.968 317.066 233.768C317.531 233.567 318.049 233.467 318.618 233.467C319.484 233.467 320.174 233.686 320.689 234.123C321.204 234.556 321.469 235.167 321.482 235.955V239.291C321.482 239.956 321.576 240.487 321.763 240.884V241H320.067ZM318.242 239.804C318.57 239.804 318.878 239.724 319.165 239.564C319.457 239.405 319.675 239.191 319.821 238.922V237.527H318.926C318.311 237.527 317.848 237.634 317.538 237.849C317.228 238.063 317.073 238.366 317.073 238.758C317.073 239.077 317.178 239.332 317.388 239.523C317.602 239.71 317.887 239.804 318.242 239.804ZM328.147 234.943H324.935V241H323.28V233.604H328.147V234.943ZM335.564 237.377C335.564 238.521 335.305 239.435 334.785 240.118C334.266 240.797 333.568 241.137 332.693 241.137C331.882 241.137 331.233 240.87 330.745 240.337V243.844H329.084V233.604H330.615L330.684 234.355C331.171 233.763 331.834 233.467 332.673 233.467C333.575 233.467 334.282 233.804 334.792 234.479C335.307 235.148 335.564 236.08 335.564 237.274V237.377ZM333.91 237.233C333.91 236.495 333.762 235.91 333.466 235.477C333.174 235.044 332.755 234.827 332.208 234.827C331.529 234.827 331.041 235.107 330.745 235.668V238.949C331.046 239.523 331.538 239.811 332.222 239.811C332.75 239.811 333.163 239.599 333.459 239.175C333.76 238.746 333.91 238.099 333.91 237.233ZM339.481 238.621L340.985 233.604H342.756L339.816 242.121C339.365 243.365 338.6 243.987 337.52 243.987C337.278 243.987 337.011 243.946 336.72 243.864V242.579L337.034 242.6C337.453 242.6 337.768 242.522 337.978 242.367C338.192 242.217 338.36 241.962 338.483 241.602L338.723 240.966L336.125 233.604H337.916L339.481 238.621ZM349.318 235.627C349.318 235.955 349.218 236.258 349.018 236.536C348.822 236.81 348.544 237.028 348.184 237.192C349.031 237.489 349.455 238.061 349.455 238.908C349.455 239.587 349.179 240.13 348.628 240.535C348.076 240.936 347.338 241.137 346.413 241.137C345.848 241.137 345.333 241.043 344.868 240.856C344.403 240.665 344.041 240.396 343.781 240.05C343.521 239.699 343.392 239.284 343.392 238.806H345.046C345.046 239.106 345.18 239.359 345.449 239.564C345.718 239.765 346.058 239.865 346.468 239.865C346.873 239.865 347.195 239.772 347.432 239.585C347.673 239.394 347.794 239.145 347.794 238.84C347.794 238.48 347.689 238.22 347.479 238.061C347.27 237.901 346.946 237.821 346.509 237.821H345.319V236.625H346.55C347.293 236.616 347.664 236.311 347.664 235.709C347.664 235.408 347.557 235.174 347.343 235.005C347.129 234.836 346.835 234.752 346.461 234.752C346.096 234.752 345.789 234.843 345.538 235.025C345.287 235.203 345.162 235.429 345.162 235.702H343.508C343.508 235.05 343.781 234.517 344.328 234.103C344.875 233.683 345.57 233.474 346.413 233.474C347.329 233.474 348.042 233.66 348.553 234.034C349.063 234.408 349.318 234.939 349.318 235.627ZM353.495 238.074H352.654V241H350.993V233.604H352.654V236.557H353.386L355.43 233.604H357.48L354.808 237.145L357.706 241H355.546L353.495 238.074ZM363.236 233.604H364.891V241H363.236V236.064L360.338 241H358.684V233.604H360.338V238.539L363.236 233.604Z" fill="#A4A9B3"/>
<path d="M102.84 231.681L104.969 229.552V240.813C104.969 241.086 105.077 241.348 105.271 241.542C105.464 241.735 105.726 241.844 106 241.844C106.273 241.844 106.536 241.735 106.729 241.542C106.923 241.348 107.031 241.086 107.031 240.813V229.552L109.16 231.681C109.255 231.777 109.369 231.853 109.494 231.906C109.62 231.958 109.754 231.985 109.89 231.985C110.025 231.985 110.16 231.958 110.285 231.907C110.41 231.855 110.524 231.779 110.62 231.683C110.716 231.587 110.792 231.473 110.844 231.348C110.896 231.222 110.922 231.088 110.922 230.952C110.922 230.817 110.895 230.682 110.843 230.557C110.791 230.432 110.714 230.318 110.618 230.222L106.729 226.333C106.633 226.238 106.52 226.162 106.395 226.11C106.269 226.058 106.135 226.031 106 226.031C105.865 226.031 105.73 226.058 105.605 226.11C105.48 226.162 105.366 226.238 105.271 226.333L101.382 230.222C101.285 230.318 101.209 230.432 101.157 230.557C101.105 230.682 101.078 230.817 101.078 230.952C101.077 231.088 101.104 231.222 101.156 231.348C101.208 231.473 101.284 231.587 101.38 231.683C101.476 231.779 101.59 231.855 101.715 231.907C101.84 231.958 101.975 231.985 102.11 231.985C102.246 231.985 102.38 231.958 102.505 231.906C102.631 231.853 102.744 231.777 102.84 231.681Z" fill="#037CFF"/>
<path d="M114.938 234.969C114.664 234.969 114.402 235.077 114.208 235.271C114.015 235.464 113.906 235.726 113.906 236V243.906H98.0939V236C98.0939 235.726 97.9852 235.464 97.7918 235.271C97.5984 235.077 97.3361 234.969 97.0626 234.969C96.7891 234.969 96.5268 235.077 96.3334 235.271C96.14 235.464 96.0312 235.726 96.0312 236V244.25C96.0312 244.706 96.2124 245.143 96.5348 245.465C96.8571 245.788 97.2943 245.969 97.7501 245.969H114.25C114.706 245.969 115.143 245.788 115.465 245.465C115.788 245.143 115.969 244.706 115.969 244.25V236C115.969 235.726 115.86 235.464 115.667 235.271C115.473 235.077 115.211 234.969 114.938 234.969Z" fill="#037CFF"/>
<path d="M274.538 174C273.782 174 273.008 173.905 272.243 173.703L202.66 155.068C197.89 153.754 195.046 148.813 196.297 144.043L205.076 111.319C205.4 110.118 206.633 109.42 207.83 109.726C209.032 110.046 209.743 111.283 209.423 112.48L200.648 145.195C200.023 147.58 201.454 150.064 203.843 150.726L273.4 169.351C275.789 169.981 278.255 168.559 278.876 166.183L282.391 153.16C282.715 151.959 283.948 151.243 285.149 151.572C286.351 151.896 287.057 153.133 286.738 154.33L283.228 167.335C282.17 171.34 278.525 174 274.538 174Z" fill="#868E99"/>
<path d="M295 147H223C218.036 147 214 142.964 214 138V84C214 79.0365 218.036 75 223 75H295C299.964 75 304 79.0365 304 84V138C304 142.964 299.964 147 295 147ZM223 79.5C220.521 79.5 218.5 81.5205 218.5 84V138C218.5 140.48 220.521 142.5 223 142.5H295C297.479 142.5 299.5 140.48 299.5 138V84C299.5 81.5205 297.479 79.5 295 79.5H223Z" fill="#868E99"/>
<path d="M236.5 106.5C231.536 106.5 227.5 102.463 227.5 97.5C227.5 92.5365 231.536 88.5 236.5 88.5C241.463 88.5 245.5 92.5365 245.5 97.5C245.5 102.463 241.463 106.5 236.5 106.5ZM236.5 93C234.02 93 232 95.0205 232 97.5C232 99.9795 234.02 102 236.5 102C238.979 102 241 99.9795 241 97.5C241 95.0205 238.979 93 236.5 93Z" fill="#868E99"/>
<path d="M216.565 142.185C215.989 142.185 215.413 141.965 214.972 141.528C214.095 140.651 214.095 139.224 214.972 138.347L236.226 117.093C238.773 114.546 243.223 114.546 245.77 117.093L252.097 123.42L269.611 102.405C270.885 100.88 272.757 99.9931 274.75 99.9751H274.8C276.771 99.9751 278.638 100.83 279.925 102.329L303.46 129.788C304.27 130.728 304.162 132.15 303.217 132.96C302.277 133.77 300.859 133.667 300.045 132.717L276.51 105.258C276.073 104.754 275.47 104.475 274.8 104.475C274.332 104.435 273.508 104.759 273.072 105.285L253.978 128.195C253.573 128.681 252.984 128.973 252.349 129C251.71 129.045 251.103 128.793 250.657 128.343L242.589 120.275C241.738 119.429 240.258 119.429 239.407 120.275L218.154 141.528C217.717 141.965 217.141 142.185 216.565 142.185Z" fill="#868E99"/>
</svg>
